<svg width="277" height="51" viewBox="0 0 277 51" fill="none" xmlns="http://www.w3.org/2000/svg">
<path d="M7.304 50.6C5.04267 50.6 3.29333 49.9387 2.056 48.616C0.776 47.2933 0.136 45.5013 0.136 43.24C0.136 42.6853 0.178666 42.152 0.264 41.64C0.306666 41.128 0.370666 40.6587 0.456 40.232C1.224 36.6053 3.16533 32.4453 6.28 27.752C8.328 24.5947 10.6107 21.736 13.128 19.176C15.688 16.616 18.312 14.568 21 13.032C23.7307 11.496 26.3547 10.728 28.872 10.728C30.3227 10.728 31.3893 11.1333 32.072 11.944C32.7547 12.712 33.096 13.7573 33.096 15.08C33.096 16.616 32.712 18.3867 31.944 20.392C31.1333 22.3973 30.1307 24.296 28.936 26.088C27.784 27.8373 26.6533 29.1173 25.544 29.928C25.3733 30.0987 25.1813 30.184 24.968 30.184C24.7973 30.184 24.712 30.0773 24.712 29.864C24.712 29.3947 25.0107 28.9253 25.608 28.456C26.1627 28.072 26.76 27.4107 27.4 26.472C28.0827 25.4907 28.7227 24.4027 29.32 23.208C29.96 22.0133 30.472 20.8187 30.856 19.624C31.2827 18.4293 31.496 17.4053 31.496 16.552C31.496 14.504 30.472 13.48 28.424 13.48C24.5413 13.48 20.7867 14.9733 17.16 17.96C14.728 19.9227 12.5093 22.2267 10.504 24.872C8.54133 27.4747 6.856 30.1413 5.448 32.872C4.08267 35.6027 3.08 38.184 2.44 40.616C2.184 41.5547 2.056 42.4933 2.056 43.432C2.056 45.2667 2.58933 46.7173 3.656 47.784C4.68 48.8507 6.088 49.2987 7.88 49.128C11.1653 48.8293 14.792 47.528 18.76 45.224C21.3627 43.688 23.88 41.96 26.312 40.04C28.744 38.12 31.0053 36.1147 33.096 34.024C35.1867 31.8907 37 29.8427 38.536 27.88L35.464 28.328C34.5253 28.456 33.736 28.6053 33.096 28.776C32.4987 28.904 32.0933 29.0107 31.88 29.096C31.7947 29.1387 31.688 29.16 31.56 29.16C31.304 29.16 31.176 28.968 31.176 28.584C31.176 28.2 31.304 27.752 31.56 27.24C31.8587 26.728 32.1787 26.3867 32.52 26.216C33.672 25.6187 36.424 25.1707 40.776 24.872C42.6533 22.7387 44.5947 20.6053 46.6 18.472C48.7333 16.168 50.5253 14.2053 51.976 12.584C53.4267 10.9627 54.7067 9.46933 55.816 8.104C56.968 6.696 58.0773 5.24533 59.144 3.752C59.4853 3.28266 59.8267 3.048 60.168 3.048C60.424 3.048 60.552 3.176 60.552 3.432C60.552 3.688 60.4667 3.90133 60.296 4.072C58.8453 6.12 57.3307 8.12533 55.752 10.088C54.1733 12.0507 52.424 14.1413 50.504 16.36C48.6267 18.536 46.4933 21.0107 44.104 23.784L43.272 24.744L46.216 24.616L51.848 24.424C51.8053 24.5093 51.9973 24.1253 52.424 23.272C52.8507 22.376 53.4907 21.0107 54.344 19.176C55.5387 16.7013 56.584 14.504 57.48 12.584C58.4187 10.6213 59.1867 8.936 59.784 7.528C61.0213 4.75467 61.6613 2.83467 61.704 1.768C61.7467 1.21333 62.024 0.786664 62.536 0.487999C63.048 0.189331 63.624 0.0399971 64.264 0.0399971C64.7333 0.0399971 65.16 0.125331 65.544 0.295998C65.9707 0.423999 66.2267 0.594666 66.312 0.807999C66.5253 1.192 66.2053 2.216 65.352 3.88C64.7973 5.032 64.1147 6.35467 63.304 7.848C62.4933 9.34133 61.576 11.0053 60.552 12.84C59.144 15.3573 57.928 17.576 56.904 19.496C55.9227 21.416 55.1333 23.0373 54.536 24.36L59.464 24.104H59.656C60.04 24.104 60.232 24.232 60.232 24.488C60.232 24.6587 60.1253 24.8293 59.912 25C59.6987 25.1707 59.4213 25.2773 59.08 25.32L53.896 25.704C53.8533 25.7893 53.6187 26.3013 53.192 27.24C52.7653 28.1787 52.1467 29.5227 51.336 31.272C49.7147 34.856 48.904 37.9067 48.904 40.424C48.904 42.1307 49.544 42.984 50.824 42.984C51.1653 42.984 51.6133 42.8133 52.168 42.472C52.7653 42.1733 53.32 41.8107 53.832 41.384C54.3867 40.9573 54.792 40.5733 55.048 40.232C55.3467 39.8053 55.6453 39.592 55.944 39.592C56.1147 39.592 56.2 39.6773 56.2 39.848C56.2 40.0613 56.0293 40.3387 55.688 40.68C55.2613 41.1493 54.7067 41.6827 54.024 42.28C53.3413 42.8773 52.6587 43.3893 51.976 43.816C51.2933 44.2427 50.7173 44.4773 50.248 44.52C47.5173 44.6907 46.152 43.4533 46.152 40.808C46.152 39.2293 46.536 37.416 47.304 35.368C48.1147 33.32 49.1173 30.9307 50.312 28.2L51.336 25.896C49.8853 26.024 47.9013 26.344 45.384 26.856C44.488 27.0267 43.6773 27.176 42.952 27.304C42.2693 27.3893 41.6933 27.4747 41.224 27.56C38.7067 30.4187 35.9973 33.2133 33.096 35.944C30.1947 38.6747 27.2293 41.1493 24.2 43.368C21.2133 45.5867 18.2693 47.336 15.368 48.616C12.5093 49.9387 9.82133 50.6 7.304 50.6ZM60.096 42.28C59.072 42.28 58.2827 41.96 57.728 41.32C57.216 40.7227 56.96 39.9333 56.96 38.952C56.96 37.2027 57.6 35.496 58.88 33.832C59.904 32.5093 61.0347 31.3147 62.272 30.248C63.552 29.1387 64.7893 28.264 65.984 27.624C67.2213 26.9413 68.2667 26.6 69.12 26.6C69.9307 26.6 70.464 26.9413 70.72 27.624C70.8907 27.9653 70.976 28.3707 70.976 28.84C70.976 29.6933 70.656 30.12 70.016 30.12C69.7173 30.12 69.44 29.992 69.184 29.736C68.9707 29.4373 68.864 29.032 68.864 28.52C68.3947 28.3067 67.7547 28.4133 66.944 28.84C66.176 29.224 65.3653 29.8 64.512 30.568C63.6587 31.2933 62.848 32.0827 62.08 32.936C61.312 33.7467 60.7147 34.4507 60.288 35.048C59.52 36.1147 59.136 37.288 59.136 38.568C59.136 39.1653 59.2853 39.656 59.584 40.04C59.8827 40.424 60.3307 40.616 60.928 40.616C61.4827 40.616 62.144 40.4453 62.912 40.104C63.4667 39.8053 63.9787 39.528 64.448 39.272C64.96 39.016 65.4293 38.7813 65.856 38.568C68.5013 37.0747 69.9947 36.328 70.336 36.328C70.464 36.328 70.528 36.392 70.528 36.52C70.528 36.648 70.4213 36.8187 70.208 37.032C69.7813 37.416 69.0987 37.9493 68.16 38.632C67.2213 39.3147 66.2187 39.9547 65.152 40.552C64.0853 41.1493 63.104 41.5973 62.208 41.896C61.3973 42.152 60.6933 42.28 60.096 42.28ZM74.9085 42.28C73.8845 42.28 73.0952 41.96 72.5405 41.32C72.0285 40.7227 71.7725 39.9333 71.7725 38.952C71.7725 37.2027 72.4125 35.496 73.6925 33.832C74.7165 32.5093 75.8472 31.3147 77.0845 30.248C78.3645 29.1387 79.6018 28.264 80.7965 27.624C82.0338 26.9413 83.0792 26.6 83.9325 26.6C84.7432 26.6 85.2765 26.9413 85.5325 27.624C85.7032 27.9653 85.7885 28.3707 85.7885 28.84C85.7885 29.6933 85.4685 30.12 84.8285 30.12C84.5298 30.12 84.2525 29.992 83.9965 29.736C83.7832 29.4373 83.6765 29.032 83.6765 28.52C83.2072 28.3067 82.5672 28.4133 81.7565 28.84C80.9885 29.224 80.1778 29.8 79.3245 30.568C78.4712 31.2933 77.6605 32.0827 76.8925 32.936C76.1245 33.7467 75.5272 34.4507 75.1005 35.048C74.3325 36.1147 73.9485 37.288 73.9485 38.568C73.9485 39.1653 74.0978 39.656 74.3965 40.04C74.6952 40.424 75.1432 40.616 75.7405 40.616C76.2952 40.616 76.9565 40.4453 77.7245 40.104C78.2792 39.8053 78.7912 39.528 79.2605 39.272C79.7725 39.016 80.2418 38.7813 80.6685 38.568C83.3138 37.0747 84.8072 36.328 85.1485 36.328C85.2765 36.328 85.3405 36.392 85.3405 36.52C85.3405 36.648 85.2338 36.8187 85.0205 37.032C84.5938 37.416 83.9112 37.9493 82.9725 38.632C82.0338 39.3147 81.0312 39.9547 79.9645 40.552C78.8978 41.1493 77.9165 41.5973 77.0205 41.896C76.2098 42.152 75.5058 42.28 74.9085 42.28ZM90.425 41.704C89.529 41.704 88.7397 41.4693 88.057 41C86.9477 40.1467 86.393 38.8667 86.393 37.16C86.393 35.4533 86.9903 33.64 88.185 31.72C89.3797 29.8 91.193 28.0293 93.625 26.408C94.0517 26.1093 94.6277 25.96 95.353 25.96C96.2917 25.96 97.1237 26.216 97.849 26.728C98.617 27.24 98.9157 27.9013 98.745 28.712C98.4463 30.0347 97.785 31.208 96.761 32.232C95.7797 33.256 94.6063 34.1733 93.241 34.984C91.9183 35.752 90.553 36.4987 89.145 37.224C89.1023 37.352 89.0597 37.48 89.017 37.608C89.017 37.736 89.017 37.864 89.017 37.992C89.017 38.5893 89.209 39.1227 89.593 39.592C90.0197 40.0187 90.5957 40.232 91.321 40.232C91.8757 40.232 92.345 40.1467 92.729 39.976C93.4117 39.72 93.9663 39.4853 94.393 39.272C94.8623 39.0587 95.3957 38.7387 95.993 38.312C96.5903 37.8853 97.401 37.2453 98.425 36.392C98.8943 36.0507 99.1717 35.88 99.257 35.88C99.513 35.88 99.5983 36.072 99.513 36.456C99.0863 37.1387 98.3397 37.8853 97.273 38.696C96.249 39.5067 95.097 40.2107 93.817 40.808C92.5797 41.4053 91.449 41.704 90.425 41.704ZM89.529 35.496C89.8703 35.496 90.5743 35.1547 91.641 34.472C92.7077 33.7893 93.7103 33.0427 94.649 32.232C96.2703 30.7387 97.081 29.5867 97.081 28.776C97.081 28.5627 97.017 28.3707 96.889 28.2C96.761 27.9867 96.569 27.88 96.313 27.88C95.5023 27.88 94.137 28.84 92.217 30.76C90.8943 32.04 89.9983 33.6187 89.529 35.496ZM97.8005 43.688C97.1178 43.688 96.5205 43.624 96.0085 43.496C95.5392 43.368 95.3045 43.1973 95.3045 42.984C95.3045 42.6427 95.6458 42.4507 96.3285 42.408C96.9685 42.3653 97.3952 42.3013 97.6085 42.216C97.9925 42.1307 98.4405 42.0667 98.9525 42.024C99.4218 41.9387 99.8058 41.8747 100.105 41.832C102.153 41.2347 103.177 40.3173 103.177 39.08C103.177 38.2267 102.729 37.1387 101.833 35.816C101.278 35.0053 101.001 34.1093 101.001 33.128C101.001 31.9333 101.363 30.76 102.089 29.608C102.857 28.456 103.795 27.4533 104.905 26.6C106.057 25.704 107.209 25.1067 108.361 24.808C108.873 24.68 109.406 24.616 109.961 24.616C110.857 24.616 111.497 24.8293 111.881 25.256C112.137 25.512 112.265 26.0667 112.265 26.92C112.265 27.56 112.158 28.2213 111.945 28.904C111.731 29.544 111.433 30.0773 111.049 30.504C110.835 30.7173 110.665 30.824 110.537 30.824C110.323 30.824 110.217 30.5253 110.217 29.928L110.281 28.648C110.323 28.3067 110.345 28.008 110.345 27.752C110.387 27.496 110.409 27.2827 110.409 27.112C110.409 26.3867 110.259 25.96 109.961 25.832C109.619 25.7467 109.385 25.704 109.257 25.704C108.361 25.704 107.401 26.1093 106.377 26.92C105.353 27.7307 104.521 28.6693 103.881 29.736C103.625 30.12 103.497 30.5893 103.497 31.144C103.497 31.8267 103.667 32.6373 104.009 33.576C104.393 34.472 104.67 35.1333 104.841 35.56C105.267 36.4987 105.587 37.3093 105.801 37.992C106.057 38.6747 106.185 39.272 106.185 39.784C106.185 40.04 106.163 40.232 106.121 40.36C106.334 40.2747 106.846 40.1467 107.657 39.976C108.382 39.8053 109.001 39.72 109.513 39.72C109.811 39.72 109.961 39.784 109.961 39.912C109.961 39.9547 109.833 40.104 109.577 40.36C109.449 40.488 109.043 40.7013 108.361 41C107.721 41.256 106.953 41.5333 106.057 41.832C105.203 42.1307 104.35 42.408 103.497 42.664C102.643 42.92 101.918 43.112 101.321 43.24C100.297 43.5387 99.1232 43.688 97.8005 43.688ZM110.113 43.688C109.43 43.688 108.833 43.624 108.321 43.496C107.852 43.368 107.617 43.1973 107.617 42.984C107.617 42.6427 107.958 42.4507 108.641 42.408C109.281 42.3653 109.708 42.3013 109.921 42.216C110.305 42.1307 110.753 42.0667 111.265 42.024C111.734 41.9387 112.118 41.8747 112.417 41.832C114.465 41.2347 115.489 40.3173 115.489 39.08C115.489 38.2267 115.041 37.1387 114.145 35.816C113.59 35.0053 113.313 34.1093 113.313 33.128C113.313 31.9333 113.676 30.76 114.401 29.608C115.169 28.456 116.108 27.4533 117.217 26.6C118.369 25.704 119.521 25.1067 120.673 24.808C121.185 24.68 121.718 24.616 122.273 24.616C123.169 24.616 123.809 24.8293 124.193 25.256C124.449 25.512 124.577 26.0667 124.577 26.92C124.577 27.56 124.47 28.2213 124.257 28.904C124.044 29.544 123.745 30.0773 123.361 30.504C123.148 30.7173 122.977 30.824 122.849 30.824C122.636 30.824 122.529 30.5253 122.529 29.928L122.593 28.648C122.636 28.3067 122.657 28.008 122.657 27.752C122.7 27.496 122.721 27.2827 122.721 27.112C122.721 26.3867 122.572 25.96 122.273 25.832C121.932 25.7467 121.697 25.704 121.569 25.704C120.673 25.704 119.713 26.1093 118.689 26.92C117.665 27.7307 116.833 28.6693 116.193 29.736C115.937 30.12 115.809 30.5893 115.809 31.144C115.809 31.8267 115.98 32.6373 116.321 33.576C116.705 34.472 116.982 35.1333 117.153 35.56C117.58 36.4987 117.9 37.3093 118.113 37.992C118.369 38.6747 118.497 39.272 118.497 39.784C118.497 40.04 118.476 40.232 118.433 40.36C118.646 40.2747 119.158 40.1467 119.969 39.976C120.694 39.8053 121.313 39.72 121.825 39.72C122.124 39.72 122.273 39.784 122.273 39.912C122.273 39.9547 122.145 40.104 121.889 40.36C121.761 40.488 121.356 40.7013 120.673 41C120.033 41.256 119.265 41.5333 118.369 41.832C117.516 42.1307 116.662 42.408 115.809 42.664C114.956 42.92 114.23 43.112 113.633 43.24C112.609 43.5387 111.436 43.688 110.113 43.688ZM126.202 42.088C124.538 42.088 123.706 41.3413 123.706 39.848C123.706 39.7627 123.706 39.6133 123.706 39.4C123.748 39.1867 123.791 38.9307 123.834 38.632C124.26 36.8827 125.114 35.1973 126.394 33.576C127.716 31.912 129.231 30.4613 130.938 29.224C131.578 28.712 132.602 28.456 134.01 28.456C134.82 28.456 135.524 28.584 136.122 28.84C136.762 29.0533 137.21 29.3947 137.466 29.864C137.722 30.2907 137.85 30.7813 137.85 31.336C137.85 31.4213 137.828 31.5493 137.786 31.72C137.786 31.8907 137.764 32.0827 137.722 32.296C137.807 32.2533 137.935 32.232 138.106 32.232C138.319 32.232 138.575 32.2107 138.874 32.168C139.172 32.1253 139.45 32.0827 139.706 32.04C140.004 31.9973 140.303 31.976 140.602 31.976H140.858C141.327 31.976 141.37 32.168 140.986 32.552C140.644 32.8933 140.175 33.1067 139.578 33.192L137.402 33.448C136.975 34.6427 136.228 35.8373 135.162 37.032C134.138 38.2267 132.986 39.272 131.706 40.168C130.468 41.0213 129.295 41.576 128.186 41.832C127.546 42.0027 126.884 42.088 126.202 42.088ZM134.394 32.552C134.65 32.552 134.948 32.552 135.29 32.552C135.674 32.5093 136.1 32.4667 136.57 32.424C136.612 32.3387 136.634 32.1467 136.634 31.848C136.634 31.08 136.314 30.5467 135.674 30.248C135.332 30.0347 134.906 29.928 134.394 29.928C133.754 29.928 133.092 30.1413 132.41 30.568C131.77 30.952 131.087 31.464 130.362 32.104C131.258 32.4027 132.602 32.552 134.394 32.552ZM128.122 39.848C128.548 39.848 129.146 39.656 129.914 39.272C130.724 38.8453 131.556 38.2907 132.41 37.608C133.263 36.9253 134.031 36.2 134.714 35.432C134.927 35.2187 135.14 34.9627 135.354 34.664C135.567 34.3227 135.802 33.9813 136.058 33.64L134.522 33.832C132.132 34.1733 129.999 34.3653 128.122 34.408C127.183 35.944 126.607 37.224 126.394 38.248C126.351 38.8027 126.5 39.208 126.842 39.464C127.183 39.72 127.61 39.848 128.122 39.848ZM139.215 42.344C138.66 42.344 138.383 41.8533 138.383 40.872C138.383 40.0613 138.575 39.272 138.959 38.504C139.94 36.6267 140.836 34.7707 141.647 32.936C142.201 31.8267 142.713 30.76 143.183 29.736C143.695 28.712 144.164 27.7733 144.591 26.92C144.847 26.664 145.103 26.536 145.359 26.536C145.913 26.536 146.084 26.792 145.871 27.304C145.785 27.6027 145.657 27.9653 145.487 28.392C145.359 28.776 145.188 29.2453 144.975 29.8C144.292 31.592 143.887 32.8507 143.759 33.576C144.953 32.5093 146.169 31.528 147.407 30.632C148.687 29.6933 149.881 28.9253 150.991 28.328C152.1 27.7307 153.039 27.432 153.807 27.432C154.489 27.432 154.831 27.7093 154.831 28.264C154.831 28.7333 154.617 29.2453 154.191 29.8C153.764 30.312 153.337 30.568 152.911 30.568C152.697 30.568 152.527 30.504 152.399 30.376C152.271 30.3333 152.015 30.312 151.631 30.312C150.265 30.312 148.836 30.9733 147.343 32.296C145.764 33.6187 144.335 35.2187 143.055 37.096C141.775 38.9307 140.836 40.5307 140.239 41.896C139.94 42.1947 139.599 42.344 139.215 42.344ZM158.432 26.984C157.877 26.984 157.6 26.856 157.6 26.6C157.6 26.3867 157.749 26.088 158.048 25.704C158.389 25.2773 158.773 24.9147 159.2 24.616C160.138 24.0187 160.864 23.5067 161.376 23.08C161.93 22.6533 162.592 21.928 163.36 20.904C163.402 20.9893 163.424 21.16 163.424 21.416C163.424 21.9707 163.189 22.6533 162.72 23.464C162.293 24.232 161.802 24.936 161.248 25.576C160.693 26.216 160.202 26.6213 159.776 26.792C159.392 26.92 158.944 26.984 158.432 26.984ZM152.736 42.664C152.394 42.664 152.074 42.536 151.776 42.28C151.477 42.024 151.328 41.6827 151.328 41.256C151.328 40.36 151.946 38.7173 153.184 36.328L153.888 34.92C153.973 34.8347 154.08 34.6213 154.208 34.28C154.378 33.9387 154.613 33.4907 154.911 32.936C155.21 32.3387 155.445 31.8053 155.616 31.336C155.786 30.8667 155.914 30.4187 156 29.992C156 29.9493 156.085 29.864 156.256 29.736C156.426 29.608 156.597 29.5013 156.768 29.416L157.152 29.352C157.493 29.352 157.77 29.416 157.984 29.544C158.24 29.672 158.325 29.8427 158.24 30.056C157.941 30.696 157.685 31.2507 157.472 31.72C157.258 32.1893 157.088 32.5947 156.96 32.936H156.896C156.426 34.0027 156.021 35.0267 155.68 36.008C155.381 36.9467 155.253 37.8427 155.296 38.696L155.36 40.424C155.317 40.8507 155.168 41.2133 154.911 41.512C154.741 41.64 154.506 41.7893 154.208 41.96C153.909 42.1733 153.525 42.3867 153.056 42.6C153.013 42.6427 152.906 42.664 152.736 42.664ZM162.488 41.704C161.592 41.704 160.802 41.4693 160.12 41C159.01 40.1467 158.456 38.8667 158.456 37.16C158.456 35.4533 159.053 33.64 160.248 31.72C161.442 29.8 163.256 28.0293 165.688 26.408C166.114 26.1093 166.69 25.96 167.416 25.96C168.354 25.96 169.186 26.216 169.912 26.728C170.68 27.24 170.978 27.9013 170.808 28.712C170.509 30.0347 169.848 31.208 168.824 32.232C167.842 33.256 166.669 34.1733 165.304 34.984C163.981 35.752 162.616 36.4987 161.208 37.224C161.165 37.352 161.122 37.48 161.08 37.608C161.08 37.736 161.08 37.864 161.08 37.992C161.08 38.5893 161.272 39.1227 161.656 39.592C162.082 40.0187 162.658 40.232 163.384 40.232C163.938 40.232 164.408 40.1467 164.792 39.976C165.474 39.72 166.029 39.4853 166.456 39.272C166.925 39.0587 167.458 38.7387 168.056 38.312C168.653 37.8853 169.464 37.2453 170.488 36.392C170.957 36.0507 171.234 35.88 171.32 35.88C171.576 35.88 171.661 36.072 171.576 36.456C171.149 37.1387 170.402 37.8853 169.336 38.696C168.312 39.5067 167.16 40.2107 165.88 40.808C164.642 41.4053 163.512 41.704 162.488 41.704ZM161.592 35.496C161.933 35.496 162.637 35.1547 163.704 34.472C164.77 33.7893 165.773 33.0427 166.712 32.232C168.333 30.7387 169.144 29.5867 169.144 28.776C169.144 28.5627 169.08 28.3707 168.952 28.2C168.824 27.9867 168.632 27.88 168.376 27.88C167.565 27.88 166.2 28.84 164.28 30.76C162.957 32.04 162.061 33.6187 161.592 35.496ZM169.863 43.688C169.18 43.688 168.583 43.624 168.071 43.496C167.602 43.368 167.367 43.1973 167.367 42.984C167.367 42.6427 167.708 42.4507 168.391 42.408C169.031 42.3653 169.458 42.3013 169.671 42.216C170.055 42.1307 170.503 42.0667 171.015 42.024C171.484 41.9387 171.868 41.8747 172.167 41.832C174.215 41.2347 175.239 40.3173 175.239 39.08C175.239 38.2267 174.791 37.1387 173.895 35.816C173.34 35.0053 173.063 34.1093 173.063 33.128C173.063 31.9333 173.426 30.76 174.151 29.608C174.919 28.456 175.858 27.4533 176.967 26.6C178.119 25.704 179.271 25.1067 180.423 24.808C180.935 24.68 181.468 24.616 182.023 24.616C182.919 24.616 183.559 24.8293 183.943 25.256C184.199 25.512 184.327 26.0667 184.327 26.92C184.327 27.56 184.22 28.2213 184.007 28.904C183.794 29.544 183.495 30.0773 183.111 30.504C182.898 30.7173 182.727 30.824 182.599 30.824C182.386 30.824 182.279 30.5253 182.279 29.928L182.343 28.648C182.386 28.3067 182.407 28.008 182.407 27.752C182.45 27.496 182.471 27.2827 182.471 27.112C182.471 26.3867 182.322 25.96 182.023 25.832C181.682 25.7467 181.447 25.704 181.319 25.704C180.423 25.704 179.463 26.1093 178.439 26.92C177.415 27.7307 176.583 28.6693 175.943 29.736C175.687 30.12 175.559 30.5893 175.559 31.144C175.559 31.8267 175.73 32.6373 176.071 33.576C176.455 34.472 176.732 35.1333 176.903 35.56C177.33 36.4987 177.65 37.3093 177.863 37.992C178.119 38.6747 178.247 39.272 178.247 39.784C178.247 40.04 178.226 40.232 178.183 40.36C178.396 40.2747 178.908 40.1467 179.719 39.976C180.444 39.8053 181.063 39.72 181.575 39.72C181.874 39.72 182.023 39.784 182.023 39.912C182.023 39.9547 181.895 40.104 181.639 40.36C181.511 40.488 181.106 40.7013 180.423 41C179.783 41.256 179.015 41.5333 178.119 41.832C177.266 42.1307 176.412 42.408 175.559 42.664C174.706 42.92 173.98 43.112 173.383 43.24C172.359 43.5387 171.186 43.688 169.863 43.688ZM198.867 49.256C198.44 49.256 198.227 49.0853 198.227 48.744C198.227 48.2747 198.568 47.9547 199.251 47.784C201.384 47.1867 203.518 46.2053 205.651 44.84C207.784 43.5173 209.811 42.0027 211.731 40.296C213.651 38.5893 215.336 36.904 216.787 35.24C217.128 34.8133 217.598 34.2587 218.195 33.576C218.792 32.8507 219.496 31.976 220.307 30.952C219.24 31.3787 218.216 31.784 217.235 32.168C216.296 32.552 215.422 32.936 214.611 33.32C214.568 33.3627 214.462 33.384 214.291 33.384C213.907 33.384 213.715 33.1493 213.715 32.68C213.715 32.2107 213.843 31.72 214.099 31.208C214.398 30.6533 214.739 30.2693 215.123 30.056C216.36 29.544 217.619 29.0747 218.899 28.648C220.222 28.1787 221.566 27.7733 222.931 27.432C224.851 24.7867 226.494 22.1413 227.859 19.496C229.224 16.808 230.44 13.7573 231.507 10.344C231.806 9.32 231.955 8.50933 231.955 7.912C231.955 6.248 230.974 5.288 229.011 5.032C228.243 4.94667 227.219 5.05333 225.939 5.352C224.659 5.65067 223.251 6.09867 221.715 6.696C220.179 7.25067 218.664 7.86933 217.171 8.552C215.72 9.23466 214.44 9.93866 213.331 10.664C210.814 12.2427 208.424 14.12 206.163 16.296C203.944 18.4293 202.216 20.4773 200.979 22.44C199.87 24.2747 199.315 25.7253 199.315 26.792C199.315 28.456 200.446 29.288 202.707 29.288C205.139 29.288 207.507 28.904 209.811 28.136C212.158 27.368 214.163 26.4933 215.827 25.512C216.424 25.1707 216.936 25 217.363 25C217.662 25 217.811 25.064 217.811 25.192C217.768 25.32 217.576 25.4907 217.235 25.704C214.846 27.1547 212.435 28.392 210.003 29.416C207.571 30.3973 205.096 30.888 202.579 30.888C200.659 30.888 199.23 30.5467 198.291 29.864C197.352 29.1387 196.883 28.1573 196.883 26.92C196.883 25.5547 197.331 24.0827 198.227 22.504C199.08 20.9253 200.211 19.304 201.619 17.64C203.07 15.976 204.712 14.3547 206.547 12.776C208.382 11.1973 210.323 9.81067 212.371 8.616C215.315 6.824 218.195 5.37333 221.011 4.264C223.87 3.15467 226.728 2.6 229.587 2.6C231.123 2.6 232.275 3.00533 233.043 3.816C233.811 4.584 234.195 5.672 234.195 7.08C234.195 8.06133 234.003 9.17067 233.619 10.408C232.851 12.968 232.104 15.1867 231.379 17.064C230.696 18.8987 229.95 20.584 229.139 22.12C228.371 23.6133 227.432 25.1707 226.323 26.792C227.603 26.4507 228.776 26.1947 229.843 26.024C230.952 25.8533 232.126 25.704 233.363 25.576C234.6 25.4053 236.072 25.2347 237.779 25.064C238.12 25.0213 238.59 24.9787 239.187 24.936C239.784 24.8933 240.488 24.8293 241.299 24.744C243.688 20.4773 245.864 16.872 247.827 13.928C249.832 10.984 251.582 8.70133 253.075 7.08C253.331 6.824 253.715 6.696 254.227 6.696C254.867 6.696 255.464 6.86667 256.019 7.208C256.574 7.50667 256.851 7.86933 256.851 8.296C256.851 8.46666 256.766 8.63733 256.595 8.808C254.675 10.472 252.52 12.712 250.131 15.528C247.784 18.344 245.544 21.3947 243.411 24.68H245.011C245.182 24.68 245.31 24.7013 245.395 24.744C245.523 24.744 245.63 24.7653 245.715 24.808C245.843 24.8507 245.907 24.936 245.907 25.064C245.907 25.3627 245.63 25.5333 245.075 25.576C244.52 25.6187 243.752 25.6827 242.771 25.768C241.534 27.7307 240.446 29.736 239.507 31.784C238.568 33.7893 237.758 35.7947 237.075 37.8C236.734 38.952 236.563 39.848 236.563 40.488C236.563 42.024 237.267 42.92 238.675 43.176C239.102 43.2187 239.315 43.4747 239.315 43.944C239.315 44.4133 239.144 44.84 238.803 45.224C238.462 45.608 238.078 45.7573 237.651 45.672C235.646 45.3307 234.643 44.0933 234.643 41.96C234.643 40.808 234.899 39.464 235.411 37.928C235.966 36.1787 236.67 34.3227 237.523 32.36C238.419 30.3547 239.464 28.2427 240.659 26.024C237.886 26.3653 235.219 26.8773 232.659 27.56C230.099 28.2 227.176 29.0747 223.891 30.184C223.464 30.7387 222.974 31.3147 222.419 31.912C221.907 32.4667 221.31 33.0853 220.627 33.768C219.176 35.3467 218.43 36.1573 218.387 36.2C216.936 37.8213 215.166 39.5067 213.075 41.256C211.027 43.0053 208.808 44.584 206.419 45.992C204.072 47.4427 201.704 48.5093 199.315 49.192C199.23 49.2347 199.08 49.256 198.867 49.256ZM254.181 42.856C253.072 42.856 252.517 42.0453 252.517 40.424C252.517 38.76 253.093 36.3067 254.245 33.064C252.88 34.8133 251.514 36.3707 250.149 37.736C248.826 39.0587 247.504 40.1467 246.181 41C245.242 41.6827 244.389 42.024 243.621 42.024C242.597 42.024 242.085 41.32 242.085 39.912C242.085 39.144 242.213 38.44 242.469 37.8C242.81 36.8613 243.301 35.7733 243.941 34.536C244.624 33.2987 245.413 32.0613 246.309 30.824C247.205 29.5867 248.122 28.5413 249.061 27.688C249.402 27.4747 249.616 27.368 249.701 27.368C250 27.368 250.149 27.5387 250.149 27.88C250.149 28.008 250.085 28.1787 249.957 28.392C249.573 28.8187 249.125 29.4373 248.613 30.248C248.101 31.0587 247.61 31.9333 247.141 32.872C246.672 33.8107 246.266 34.6853 245.925 35.496C245.626 36.264 245.477 36.84 245.477 37.224C245.477 37.992 245.818 38.376 246.501 38.376C246.8 38.376 247.12 38.2693 247.461 38.056C249.04 37.0747 250.49 35.9013 251.813 34.536C253.136 33.128 254.373 31.2293 255.525 28.84C255.909 28.584 256.336 28.456 256.805 28.456C257.274 28.456 257.658 28.6053 257.957 28.904C258.298 29.2027 258.469 29.608 258.469 30.12C258.469 30.504 258.362 30.952 258.149 31.464C258.106 31.6347 258.021 31.8053 257.893 31.976C257.808 32.1467 257.701 32.3387 257.573 32.552C257.445 32.7653 257.338 32.9787 257.253 33.192C257.168 33.3627 257.082 33.512 256.997 33.64C256.186 35.0907 255.546 36.3067 255.077 37.288C254.65 38.2693 254.437 39.1227 254.437 39.848C254.437 40.7013 254.821 41.128 255.589 41.128C256.272 41.128 256.954 40.872 257.637 40.36C258.064 40.0613 258.426 39.912 258.725 39.912C259.194 39.912 259.088 40.2107 258.405 40.808C257.765 41.3627 256.976 41.8747 256.037 42.344C255.141 42.6853 254.522 42.856 254.181 42.856ZM260.405 43.88C259.424 43.88 258.933 43.3467 258.933 42.28C258.933 41.4693 259.146 40.616 259.573 39.72L264.117 29.8C264.458 29.0747 264.928 28.1147 265.525 26.92C266.122 25.6827 266.848 24.1893 267.701 22.44C267.786 22.2693 267.872 22.0773 267.957 21.864C268.085 21.6507 268.213 21.4373 268.341 21.224C268.597 20.7547 268.853 20.2427 269.109 19.688L269.877 18.088C270.688 16.3813 271.392 15.0373 271.989 14.056C272.629 13.032 273.333 12.264 274.101 11.752C275.082 11.1547 275.701 10.856 275.957 10.856C276.256 10.856 276.576 11.1547 276.917 11.752C276.917 11.7947 276.917 11.816 276.917 11.816C276.96 11.816 276.981 11.8373 276.981 11.88C276.981 12.136 276.789 12.5627 276.405 13.16C276.149 13.544 275.786 14.0773 275.317 14.76C274.89 15.4 274.357 16.1893 273.717 17.128C271.37 20.4987 269.365 23.5493 267.701 26.28C266.08 29.0107 264.714 31.7627 263.605 34.536C264.672 33.5973 265.802 32.6587 266.997 31.72C268.234 30.7813 269.28 30.056 270.133 29.544C271.328 28.8613 272.373 28.52 273.269 28.52C274.634 28.52 275.317 29.416 275.317 31.208C275.317 33.1707 274.741 34.9627 273.589 36.584C272.437 38.1627 270.837 39.5493 268.789 40.744C266.784 41.896 264.501 42.8347 261.941 43.56C261.386 43.7733 260.874 43.88 260.405 43.88ZM262.645 41.576C264.224 41.576 265.802 41.0427 267.381 39.976C268.96 38.952 270.24 37.7147 271.221 36.264C272.245 34.7707 272.757 33.448 272.757 32.296C272.757 31.5707 272.522 30.9733 272.053 30.504C271.669 30.4187 270.922 30.696 269.813 31.336C268.704 31.9333 267.509 32.744 266.229 33.768C264.992 34.7493 263.882 35.7733 262.901 36.84C262.048 39.4427 261.706 41 261.877 41.512L262.645 41.576Z" fill="black"/>
</svg>
